<svg width="73" height="72" viewBox="0 0 73 72" fill="none" xmlns="http://www.w3.org/2000/svg">
<rect x="0.5" width="72" height="72" rx="36" fill="#F5F5F5"/>
<path fill-rule="evenodd" clip-rule="evenodd" d="M52.7263 46.8794C52.7263 47.228 52.3699 47.461 52.0537 47.319L49.7075 46.2656C49.0079 45.9388 48.2845 45.6733 47.5376 45.469C46.5187 45.1904 45.4811 45.051 44.4244 45.051C42.915 45.051 41.4559 45.3171 40.0471 45.849C39.2081 46.1658 38.4048 46.5589 37.6372 47.0285C37.6339 47.0305 37.632 47.034 37.632 47.0378C37.632 47.0414 37.6302 47.0448 37.6271 47.0468L36.4298 47.8441C36.2732 47.9483 36.0706 47.9506 35.9116 47.85L34.6144 47.0284C34.6135 47.0278 34.6123 47.0279 34.6116 47.0286C34.6109 47.0295 34.6098 47.0296 34.6088 47.029C33.841 46.5593 33.0374 46.1659 32.198 45.849C30.7892 45.3171 29.3301 45.051 27.8207 45.051C26.7641 45.051 25.7263 45.1904 24.7075 45.469C23.9627 45.6727 23.2415 45.9373 22.5438 46.2628C22.5401 46.2645 22.5377 46.2683 22.5377 46.2726C22.5377 46.2771 22.5348 46.2811 22.5306 46.2825L20.1576 47.136C19.8463 47.248 19.5188 47.0155 19.5188 46.6827V26.9647C19.5188 26.686 19.588 26.4201 19.7263 26.1667C19.8647 25.9134 20.0723 25.7234 20.349 25.5968C21.5062 24.9888 22.7138 24.5329 23.9716 24.2289C25.2295 23.9249 26.5125 23.7729 27.8207 23.7729C29.2798 23.7729 30.7075 23.9629 32.1037 24.3429C33.4119 24.6989 34.6703 25.2217 35.8791 25.9112C36.0301 25.9973 36.215 25.9973 36.366 25.9112C37.5748 25.2217 38.8333 24.6989 40.1414 24.3429C41.5377 23.9629 42.9654 23.7729 44.4244 23.7729C45.7327 23.7729 47.0157 23.9249 48.2735 24.2289C49.5314 24.5329 50.739 24.9888 51.8962 25.5968C52.1728 25.7234 52.3804 25.9134 52.5188 26.1667C52.6572 26.4201 52.7263 26.686 52.7263 26.9647V36.7331C52.7263 37.0572 52.4145 37.2885 52.1084 37.188C51.652 37.0382 51.2223 36.89 50.8061 36.7462L50.7971 36.7431C50.2529 36.5553 49.7315 36.3754 49.203 36.2106C48.5296 35.9557 47.8361 35.7574 47.1225 35.6157C46.2295 35.4384 45.3301 35.3498 44.4244 35.3498C44.4005 35.3498 44.3765 35.3498 44.3526 35.35L44.3487 35.3498C42.5019 35.2606 40.7239 35.7538 39.406 36.3025C38.8033 36.543 38.2195 36.8289 37.6545 37.1604C37.6406 37.1686 37.632 37.1835 37.632 37.1997V37.2232C37.632 37.2232 37.632 37.2238 37.6319 37.2242C37.6317 37.2246 37.6317 37.2248 37.6317 37.2252V42.8347C37.6317 43.1911 38.0062 43.4337 38.335 43.3016C39.4379 42.8587 41.722 42.0838 44.3487 42.0118L44.3629 42.0115C44.3834 42.0113 44.404 42.0113 44.4244 42.0113C44.9154 42.0113 45.4009 42.0337 45.8807 42.0784C46.6139 42.1545 47.368 42.2874 48.1033 42.4518C48.6357 42.5807 49.1705 42.7378 49.7075 42.9232C50.7896 43.2354 51.7502 43.5342 52.432 43.797C52.6115 43.8663 52.7263 44.0415 52.7263 44.2352V46.8794ZM27.8207 42.0113C29.0031 42.0113 30.154 42.1444 31.2735 42.4103C32.1605 42.621 33.0436 42.9153 33.9227 43.293C34.2459 43.4319 34.6132 43.1982 34.6132 42.8442V37.1745C34.6131 37.1743 34.613 37.1736 34.613 37.1736C34.6129 37.1732 34.6129 37.173 34.6129 37.1726V33.7959L34.6132 33.7949V28.9125C34.6132 28.7416 34.5235 28.5829 34.3751 28.4996C33.4138 27.9597 32.3988 27.5494 31.3301 27.2686C30.1729 26.9647 29.0031 26.8127 27.8207 26.8127C26.915 26.8127 26.0157 26.9013 25.1226 27.0787C24.334 27.2352 23.57 27.4609 22.8305 27.7557C22.6521 27.8268 22.5377 28.002 22.5377 28.1952V29.8523L22.5374 29.8535V39.4275C22.5375 39.4277 22.5377 39.4287 22.5377 39.4287V42.2494C22.5377 42.5797 22.8606 42.812 23.1745 42.7163C23.84 42.5137 24.502 42.3546 25.1603 42.2393C26.0282 42.0873 26.915 42.0113 27.8207 42.0113ZM49.0699 32.9807C49.3844 33.0745 49.7075 32.8421 49.7075 32.5118V28.1952C49.7075 28.002 49.5931 27.8268 49.4146 27.7557C48.6752 27.4609 47.9111 27.2352 47.1225 27.0787C46.2295 26.9013 45.3301 26.8127 44.4244 26.8127C43.2421 26.8127 42.0722 26.9647 40.915 27.2686C39.8464 27.5494 38.8313 27.9597 37.87 28.4996C37.7217 28.5829 37.632 28.7416 37.632 28.9125V33.0449C37.632 33.3957 37.9934 33.6296 38.3164 33.498C38.9135 33.2546 39.5219 33.0486 40.1414 32.88C41.5377 32.5 42.9654 32.31 44.4244 32.31C45.7327 32.31 47.0157 32.462 48.2735 32.766C48.5413 32.8307 48.8067 32.9023 49.0699 32.9807Z" fill="#085AE6"/>
</svg>
