<svg width="30" height="30" viewBox="0 0 30 30" fill="none" xmlns="http://www.w3.org/2000/svg">
<path fill-rule="evenodd" clip-rule="evenodd" d="M27 22.6202C27 22.8709 26.7424 23.0385 26.5138 22.9364L24.8182 22.1787C24.3126 21.9436 23.7898 21.7526 23.25 21.6057C22.5136 21.4053 21.7637 21.305 21 21.305C19.9091 21.305 18.8545 21.4964 17.8364 21.879C17.23 22.1069 16.6494 22.3896 16.0947 22.7274C16.0923 22.7288 16.0909 22.7313 16.0909 22.7341C16.0909 22.7367 16.0896 22.7391 16.0874 22.7405L15.2221 23.3141C15.1089 23.389 14.9624 23.3907 14.8476 23.3183L13.91 22.7273C13.9094 22.7269 13.9085 22.727 13.908 22.7275C13.9074 22.7281 13.9067 22.7282 13.906 22.7277C13.351 22.3899 12.7703 22.107 12.1636 21.879C11.1455 21.4964 10.0909 21.305 9 21.305C8.23637 21.305 7.48636 21.4053 6.75 21.6057C6.21176 21.7522 5.69051 21.9425 5.18628 22.1766C5.18356 22.1779 5.18182 22.1806 5.18182 22.1836C5.18182 22.1869 5.17978 22.1898 5.17671 22.1908L3.46164 22.8047C3.23667 22.8852 3 22.718 3 22.4787V8.29576C3 8.09534 3.05 7.90402 3.15 7.72182C3.25 7.53962 3.4 7.40296 3.6 7.31186C4.43637 6.87457 5.30909 6.54661 6.21818 6.32797C7.12728 6.10932 8.05455 6 9 6C10.0545 6 11.0864 6.13665 12.0955 6.40996C13.0409 6.66602 13.9504 7.04204 14.8241 7.538C14.9332 7.59996 15.0668 7.59996 15.1759 7.538C16.0496 7.04204 16.9591 6.66602 17.9045 6.40996C18.9137 6.13665 19.9455 6 21 6C21.9455 6 22.8727 6.10932 23.7818 6.32797C24.6909 6.54661 25.5637 6.87457 26.4 7.31186C26.6 7.40296 26.75 7.53962 26.85 7.72182C26.95 7.90402 27 8.09534 27 8.29576V15.322C27 15.5552 26.7746 15.7215 26.5534 15.6493C26.2235 15.5415 25.913 15.4349 25.6122 15.3315L25.6057 15.3293C25.2124 15.1942 24.8355 15.0648 24.4536 14.9462C23.9669 14.7629 23.4657 14.6203 22.95 14.5184C22.3045 14.3908 21.6546 14.327 21 14.327C20.9827 14.327 20.9654 14.3271 20.9481 14.3272L20.9453 14.327C19.6105 14.2629 18.3255 14.6177 17.373 15.0123C16.9374 15.1853 16.5155 15.3909 16.1071 15.6294C16.0971 15.6353 16.0909 15.646 16.0909 15.6577V15.6746C16.0909 15.6746 16.0909 15.675 16.0908 15.6753C16.0907 15.6756 16.0907 15.6757 16.0907 15.676V19.7109C16.0907 19.9672 16.3614 20.1417 16.599 20.0467C17.3961 19.7281 19.0469 19.1707 20.9453 19.119L20.9555 19.1187C20.9703 19.1186 20.9852 19.1186 21 19.1186C21.3548 19.1186 21.7057 19.1347 22.0525 19.1669C22.5824 19.2216 23.1274 19.3172 23.6588 19.4354C24.0436 19.5282 24.4301 19.6412 24.8182 19.7745C25.6003 19.9991 26.2945 20.214 26.7873 20.403C26.917 20.4528 27 20.5789 27 20.7182V22.6202ZM9 19.1186C9.85454 19.1186 10.6864 19.2143 11.4955 19.4056C12.1365 19.5571 12.7747 19.7688 13.4101 20.0405C13.6437 20.1404 13.9091 19.9723 13.9091 19.7177V15.6396C13.9091 15.6394 13.909 15.6389 13.909 15.6389C13.9089 15.6386 13.9089 15.6384 13.9089 15.6382V13.2094L13.9091 13.2087V9.69679C13.9091 9.57385 13.8443 9.45969 13.7371 9.39981C13.0423 9.01144 12.3087 8.71631 11.5364 8.5144C10.7 8.29576 9.85454 8.18643 9 8.18643C8.34546 8.18643 7.69545 8.25021 7.05 8.37775C6.48009 8.49036 5.9279 8.6527 5.39342 8.86475C5.2645 8.91589 5.18182 9.04193 5.18182 9.18087V10.3728L5.18164 10.3737V17.2601C5.1817 17.2602 5.18182 17.2609 5.18182 17.2609V19.2899C5.18182 19.5275 5.41518 19.6945 5.64206 19.6257C6.12308 19.4799 6.60149 19.3655 7.07727 19.2826C7.70455 19.1732 8.34546 19.1186 9 19.1186ZM24.3574 12.623C24.5847 12.6905 24.8182 12.5233 24.8182 12.2858V9.18087C24.8182 9.04193 24.7355 8.91589 24.6065 8.86475C24.0721 8.6527 23.5199 8.49036 22.95 8.37775C22.3045 8.25021 21.6546 8.18643 21 8.18643C20.1455 8.18643 19.3 8.29576 18.4637 8.5144C17.6913 8.71631 16.9577 9.01144 16.2629 9.39981C16.1557 9.45969 16.0909 9.57385 16.0909 9.69679V12.6692C16.0909 12.9215 16.3521 13.0897 16.5855 12.9951C17.0171 12.82 17.4568 12.6718 17.9045 12.5506C18.9137 12.2773 19.9455 12.1406 21 12.1406C21.9455 12.1406 22.8727 12.2499 23.7818 12.4686C23.9753 12.5151 24.1672 12.5666 24.3574 12.623Z" fill="white"/>
</svg>
